<?xml version="1.0" standalone="no"?>
<!DOCTYPE svg PUBLIC "-//W3C//DTD SVG 20010904//EN"
 "http://www.w3.org/TR/2001/REC-SVG-20010904/DTD/svg10.dtd">
<svg version="1.0" xmlns="http://www.w3.org/2000/svg"
 width="344.000000pt" height="344.000000pt" viewBox="0 0 344.000000 344.000000"
 preserveAspectRatio="xMidYMid meet">
<metadata>
Created by potrace 1.14, written by Peter Selinger 2001-2017
</metadata>
<g transform="translate(0.000000,344.000000) scale(0.100000,-0.100000)"
fill="#000000" stroke="none">
<path d="M1550 3344 c-146 -17 -171 -22 -279 -54 -274 -79 -500 -212 -703
-412 -263 -260 -422 -590 -474 -983 -9 -66 -8 -274 0 -350 61 -524 362 -982
817 -1243 255 -146 520 -216 820 -214 735 3 1375 498 1568 1212 11 41 23 90
26 108 3 17 8 47 11 65 53 308 -4 669 -153 972 -58 116 -73 142 -153 250 -339
460 -920 715 -1480 649z m350 -108 c93 -13 112 -16 192 -37 108 -27 208 -64
308 -114 94 -46 200 -112 200 -123 0 -4 -105 -112 -233 -240 l-233 -232 -42
20 c-118 57 -267 46 -376 -29 -237 -164 -222 -510 29 -652 43 -24 61 -42 79
-78 93 -181 326 -257 507 -165 165 83 249 261 204 434 -9 36 -23 76 -32 88 -8
13 -13 25 -11 27 229 235 462 465 468 465 24 0 149 -233 194 -358 32 -91 64
-211 72 -271 3 -25 9 -72 13 -103 9 -68 7 -274 -3 -338 -4 -25 -10 -58 -12
-75 -3 -16 -14 -65 -25 -107 -189 -746 -901 -1235 -1662 -1142 -179 22 -340
70 -501 151 -90 45 -196 111 -196 122 0 3 104 110 231 237 l232 232 36 -16
c141 -60 287 -47 398 38 226 170 203 503 -44 642 -41 23 -60 42 -77 77 -118
230 -439 274 -617 85 -110 -118 -135 -274 -70 -426 l19 -43 -224 -221 c-123
-122 -230 -227 -238 -233 -11 -9 -22 1 -54 51 -212 329 -288 759 -202 1149 99
445 396 826 805 1032 93 46 234 100 314 119 165 38 404 53 551 34z m896 -436
c49 -49 89 -94 89 -100 0 -6 -115 -128 -255 -272 -140 -143 -258 -268 -262
-278 -4 -12 3 -34 22 -63 38 -60 50 -106 46 -176 -11 -189 -208 -308 -384
-231 -62 27 -123 92 -148 157 -15 38 -25 48 -69 67 -114 51 -178 143 -178 256
0 156 107 268 263 276 63 3 75 0 146 -35 53 -27 83 -37 94 -31 8 5 130 124
270 264 140 141 260 256 266 256 6 0 51 -40 100 -90z m-1405 -1041 c59 -26
113 -83 144 -154 20 -45 29 -54 71 -70 181 -69 235 -299 105 -447 -71 -81
-210 -109 -311 -62 -30 14 -57 29 -60 33 -3 4 -16 11 -30 14 -22 6 -54 -23
-291 -260 -147 -146 -272 -264 -277 -262 -13 5 -116 103 -164 157 l-37 41 269
268 c242 240 269 271 263 293 -3 14 -9 27 -13 30 -4 3 -18 25 -31 50 -34 67
-33 176 4 246 38 74 110 128 190 143 57 11 110 5 168 -20z"/>
<path d="M1376 2914 c-18 -18 -18 -11 -18 -213 -1 -138 1 -156 18 -168 10 -7
28 -13 40 -13 44 0 50 25 49 210 -1 157 -3 174 -20 186 -25 18 -50 18 -69 -2z"/>
<path d="M814 2685 c-15 -16 -22 -30 -18 -42 4 -10 61 -73 128 -140 82 -84
128 -123 143 -123 23 0 53 34 53 59 0 19 -237 258 -262 264 -13 4 -29 -3 -44
-18z"/>
<path d="M594 2132 c-28 -15 -33 -62 -8 -83 20 -17 335 -20 367 -4 26 13 33
53 14 79 -12 16 -30 18 -181 20 -119 1 -174 -3 -192 -12z"/>
<path d="M2599 1444 c-16 -17 -18 -26 -10 -47 5 -14 15 -28 22 -32 6 -4 87 -8
180 -8 149 0 171 2 189 18 21 19 21 37 3 70 -11 18 -23 19 -188 20 -167 0
-177 -1 -196 -21z"/>
<path d="M2334 1165 c-15 -16 -22 -30 -18 -42 10 -27 246 -263 264 -263 26 0
60 30 60 52 0 25 -231 263 -262 271 -13 4 -29 -3 -44 -18z"/>
<path d="M2048 961 c-10 -14 -13 -62 -13 -189 1 -185 6 -202 55 -202 50 0 54
16 54 208 -1 158 -3 176 -19 189 -27 19 -62 16 -77 -6z"/>
</g>
</svg>
